# xmcd
#
# Track frame offsets: 
#        150
#        27790
#        64805
#        81938
#        97541
#        109836
#        128681
#        148678
#        164488
#        178382
#        203458
#        220679
#        235607
#        250376
#        262917
#        275823
#        294381
#
# Disc length: 4115 seconds
#
# Revision: 1
# Processed by: cddbd v1.5.2PL0 Copyright (c) Steve Scherf et al.
# Submitted via: ExactAudioCopy v1.3
#
DISCID=f0101111
DTITLE=Various Artist - Mój Empik - moja muzyka vol. 2
DYEAR=2017
DGENRE=Jazz
TTITLE0=Branford Marsalis Quartet - Doctone
TTITLE1=Charles Mingus and His Jazz Groups - Mood Indigo
TTITLE2=Duke Ellington and His Orchestra - Count Basie - Take the "A" Tra
TTITLE2=in
TTITLE3=Chet Baker - Over the Rainbow
TTITLE4=Vic Damone - On the Street Where You Live
TTITLE5=Benny Goodman - Life Goes To A Party
TTITLE6=Keith Jarrett - Expectations
TTITLE7=Bessie Smith - Gimme A Pigfoot
TTITLE8=Dizzy Gillespie - I Can't Get Started
TTITLE9=Duke Ellington - Count Basie - Battle Royal
TTITLE10=Thelonious Monk - Round Midnight
TTITLE11=Miles Davis - Summertime
TTITLE12=Woody Herman - Four Brothers
TTITLE13=The Benny Goodman Sextet - China Boy
TTITLE14=Neal Hefti Chorus and Orchestra - Girl Talk
TTITLE15=Garry Mulligan Quartet - My Funny Valentine
TTITLE16=Frank Sinatra - The Pied Pipers - Tommy Dorsey and His Orchestra 
TTITLE16=/ Stardust
EXTD=YEAR: 2017
EXTT0=
EXTT1=
EXTT2=
EXTT3=
EXTT4=
EXTT5=
EXTT6=
EXTT7=
EXTT8=
EXTT9=
EXTT10=
EXTT11=
EXTT12=
EXTT13=
EXTT14=
EXTT15=
EXTT16=
PLAYORDER=
